<svg xmlns="http://www.w3.org/2000/svg" x="0px" y="0px" viewBox="0 0 864 864" enable-background="new 0 0 864 864"><style>.ls0{fill:#000}.fs0{fill:#fff}</style><g class="fs0"><path d="M647.6,647.6C590,705.1,513.4,736.8,432,736.8s-158-31.7-215.6-89.3C158.9,590,127.2,513.4,127.2,432s31.7-158,89.3-215.6	s134.1-89.3,215.6-89.3s158,31.7,215.6,89.3C705.3,274,737,350.5,737,432S705.1,590,647.6,647.6z"/></g><g transform="translate(101.49842455 101.34842455) scale(.76528)"><path class="ls0" d="M645,486.7c-23.3-16.6-49.8-23.4-78.2-24c-10.9-0.3-21.6,0.8-32.3,2.7c-3,0.4-6.2,1-9.3,1.7	c-21.2,4.9-37.7,10.6-49.6,15.6c-5.7,2.5-28,12.6-46.5,27.2c-3.7-2.2-7.2-4.3-10.7-6.4c-16.7-10.5-33.8-19.9-51.8-27.5	c-9-15.4-12.1-34-12.6-52c-1-35.3,2.1-70.2,2.1-105.5h61.2C579.8,318.4,577.7,91,430.3,91c-59.6,0-80.5,25.6-105.1,25.6	c-11.5,0-20.9-7.8-38.7-7.8c-53.3,0-64.3,38.2-50.2,58c0.5,1.6,2.6,2.1,4.2,2.1c2.1-0.5,3.1-2.1,3.7-3.7	c8.9-37.6,50.7-29.8,50.7-4.2c0,15.9,0,31.8,0,47.6c0,41.7,0,83.3,0,125c0,19.8,0,39.7,0,59.5c0,7.7,0.1,15.5,0,23.2	c-0.2,10.2-0.2,21-3.4,30.8c-2.1,6.5-5.9,12.2-11.4,16.2c-4.1,1-8.1,2.4-12,4.1c-10.4,4.6-19.2,11.2-26.8,19.5	c-13.1,14.2-19.8,30.7-17.7,50.2c0.2,1.5,0.3,2.9,0.4,4.6c-1.7,1.3-3.3,2.6-5.1,3.8c-15.7,11.5-28.9,25.1-36.7,43.2	c-3.5,8.1-5.3,16.6-4.3,25.4c0.2,1.6,1.1,3.1,1.8,4.6c0.5,0,0.9,0,1.4,0c0.9-2,2-3.9,2.6-6c5.3-19.3,15.9-35.1,30.9-48	c4.1-3.5,8.7-6.3,13.5-9.8c1.3,1.8,2,2.7,2.5,3.7c3.3,6.7,7.8,12.5,13.3,17.5c19.3,17.5,41.9,25.8,67.4,25.8	c20.9,0,36.5-2.8,40.6-3.7c-0.5,1.3-13.5,26.4-18.4,54.8c-2.4,16-2.6,31.9,0.9,48c3.6,16.5,10.2,31.4,21.2,44.2	c15.2,17.6,34.5,27.8,58,27.5c22.3-0.2,41.6-8.6,56.3-25.9c13.4-15.8,16.7-34.2,11.8-54c-3.8-15-12.9-26.6-25.4-35.6	c-5.7-4.1-9.7-3.5-13.7,2.1c-2.2,3.1-1.9,5.3,1.3,7.3c13.4,8.4,22,20.3,25.8,35.6c3.6,15,1.1,28.9-9.1,40.6	c-13.9,15.9-36.4,22.3-57.9,14.4c-25.4-9.3-41-28.2-50.1-53.1c-3.5-9.5-6-19.1-6-29.2c-0.1-10.1-0.4-20.4,1.1-30.4	c2.3-15.6,7.6-30.5,14.2-44.8c0.8-1.7,2.8-4.8,2.8-4.8s2.5-1.1,4-1.7c9.5-3.6,18.8-7.4,28.4-11.2c12.7,7.3,25.5,15.4,38.8,22.3	c51.5,26.7,97,47.6,151.9,47.6c34.2,0,98.5-11.4,98.5-87.4C686.2,523.4,661.6,498.5,645,486.7z M356.1,135.4	c13.1-9.4,34-15.7,48.1-15.7c107.7-1,85.7,180.3-14.6,180.3h-33.5V135.4z M473,493.6c-2,7.2-12.5,26-19.4,32.8	c-6-4.1-11.9-8-18.2-12.3C447.4,506.1,460.1,498.7,473,493.6z M357.2,588.8c0,0-6.1,1.6-10.1,2.3c-15.8,2.5-31.5,1.8-47-1.5	c-22.8-5-42.4-15.4-55.7-35.5c-0.4-0.7-0.8-1.4-1.1-2.2c-0.3-0.7-0.6-1.5-1.1-2.7c11.7-5,23.4-7.1,35.4-7.7	c14.4-0.7,28.5,0.7,42.5,4.2c18,4.6,35.1,11.5,51.7,21.2C368.8,570.7,363,578.4,357.2,588.8z M368.8,586.1c2.8-4.4,6.9-10.5,10-15.3	c4.2,2.6,7.5,4.6,11.7,7.2C382.9,581.5,374.4,584.4,368.8,586.1z M393.1,541c-51-26.5-102.9-32.4-156.1-6.8	c-5.7-22.2,12.9-46.5,30.4-53.7c15.6-6.5,31.7-5.6,47.8-1.5c19.1,4.8,36.5,13.3,53.3,23.3c12.4,7.3,24.5,15.1,36.7,22.7	c0.7,0.4,1.2,1.1,2,1.7C402.3,531.6,397.8,536.2,393.1,541z M399.5,544.7c5.2-5,9.8-9.3,14.5-13.8c7.7,5,15.2,9.8,23.4,15.1	c-5,4.4-9.5,8.4-14.2,12.5C415.3,553.9,407.8,549.5,399.5,544.7z M598.1,631c-33.4,0-67.2-14-89.6-24.6	c-27.1-12.8-52.6-28.5-78.5-43.7c-0.4-0.2-0.6-0.8-1.1-1.6c4.4-3.9,8.9-7.9,13.4-11.9c6.6,3.2,12.9,6.5,19.5,9.4	c22.5,9.7,45.9,13.5,70.2,9.2c24.4-4.4,45.7-15,62-34.1c11.2-13.1,17.7-31.9,17.7-31.9s-4.3-2.4-7-4.8c-1.9,4.5-14.5,40.9-53.7,52.4	c-15.6,4.6-31.5,3.6-47.2-0.3c-15.6-3.8-30-10.2-43.9-18.9c18-22.6,25-41.1,25-41.1s13.9-4.5,19.7-6.2c15.9-4.7,32.1-6.5,48.6-6.3	c28.9,0.3,56.8,6.6,80.5,23.7c15.1,10.9,36.2,30.1,36.2,64.5C669.6,595.5,645.4,631,598.1,631z"/></g></svg>